<svg width="44" height="44" viewBox="0 0 44 44" fill="none" xmlns="http://www.w3.org/2000/svg">
<path fill-rule="evenodd" clip-rule="evenodd" d="M21.9231 0.922852C9.81058 0.922852 0 10.7334 0 22.8459C0 32.5469 6.27548 40.7406 14.9899 43.6455C16.0861 43.8373 16.4971 43.1796 16.4971 42.6041C16.4971 42.0834 16.4697 40.357 16.4697 38.5209C10.9615 39.5349 9.53654 37.1781 9.09808 35.945C8.85144 35.3147 7.78269 33.369 6.85096 32.8483C6.08365 32.4373 4.9875 31.4233 6.82356 31.3959C8.55 31.3685 9.78317 32.9854 10.1942 33.643C12.1673 36.9589 15.3187 36.0272 16.5793 35.4517C16.7712 34.0267 17.3466 33.0676 17.9769 32.5195C13.099 31.9714 8.00192 30.0805 8.00192 21.695C8.00192 19.3108 8.85144 17.3378 10.249 15.8031C10.0298 15.2551 9.2625 13.0079 10.4683 9.99353C10.4683 9.99353 12.3043 9.41805 16.4971 12.2406C18.251 11.7474 20.1144 11.5007 21.9779 11.5007C23.8413 11.5007 25.7048 11.7474 27.4587 12.2406C31.6514 9.39064 33.4875 9.99353 33.4875 9.99353C34.6933 13.0079 33.926 15.2551 33.7067 15.8031C35.1043 17.3378 35.9538 19.2834 35.9538 21.695C35.9538 30.108 30.8293 31.9714 25.9514 32.5195C26.7462 33.2046 27.4312 34.52 27.4312 36.5753C27.4312 39.5075 27.4038 41.8642 27.4038 42.6041C27.4038 43.1796 27.8149 43.8647 28.9111 43.6455C33.2631 42.1761 37.0448 39.379 39.724 35.6479C42.4032 31.9167 43.8448 27.4393 43.8462 22.8459C43.8462 10.7334 34.0356 0.922852 21.9231 0.922852Z" fill="#A7A7A7"/>
</svg>
