<svg width="43" height="43" viewBox="0 0 43 43" fill="none" xmlns="http://www.w3.org/2000/svg">
<path d="M21.0769 0.800171C9.4533 0.800171 0.0307617 10.2227 0.0307617 21.8463C0.0307617 33.4699 9.4533 42.8925 21.0769 42.8925C32.7005 42.8925 42.1231 33.4699 42.1231 21.8463C42.1231 10.2227 32.7005 0.800171 21.0769 0.800171ZM15.925 30.5695H11.6631V16.8544H15.925V30.5695ZM13.7678 15.1707C12.4217 15.1707 11.5513 14.2171 11.5513 13.0376C11.5513 11.8341 12.448 10.9089 13.8226 10.9089C15.1971 10.9089 16.039 11.8341 16.0653 13.0376C16.0653 14.2171 15.1971 15.1707 13.7678 15.1707ZM31.4904 30.5695H27.2285V22.9688C27.2285 21.1996 26.6103 19.9982 25.0691 19.9982C23.8918 19.9982 23.1925 20.8116 22.8834 21.5942C22.7694 21.8726 22.7409 22.2673 22.7409 22.6597V30.5673H18.4768V21.2281C18.4768 19.5159 18.422 18.0843 18.365 16.8522H22.0678L22.263 18.7574H22.3485C22.9097 17.8629 24.2843 16.5431 26.584 16.5431C29.388 16.5431 31.4904 18.4219 31.4904 22.4602V30.5695Z" fill="#A7A7A7"/>
</svg>
